G75*
G70*
%OFA0B0*%
%FSLAX24Y24*%
%IPPOS*%
%LPD*%
%AMOC8*
5,1,8,0,0,1.08239X$1,22.5*
%
%ADD10C,0.0000*%
%ADD11R,0.0315X0.0472*%
%ADD12R,0.0630X0.0710*%
%ADD13R,0.0394X0.0433*%
%ADD14R,0.0878X0.1382*%
%ADD15R,0.0512X0.0591*%
D10*
X000180Y000180D02*
X000180Y031676D01*
X039550Y031676D01*
X039550Y000180D01*
X000180Y000180D01*
D11*
X035326Y010180D03*
X036034Y010180D03*
X036034Y011180D03*
X035326Y011180D03*
X035326Y012180D03*
X036034Y012180D03*
X036034Y014180D03*
X035326Y014180D03*
X035326Y015180D03*
X036034Y015180D03*
X036034Y016180D03*
X035326Y016180D03*
X035326Y018180D03*
X036034Y018180D03*
X036034Y019180D03*
X035326Y019180D03*
X035326Y020180D03*
X036034Y020180D03*
X036034Y022180D03*
X035326Y022180D03*
X035326Y023180D03*
X036034Y023180D03*
X036034Y024180D03*
X035326Y024180D03*
D12*
X036620Y024180D03*
X036620Y023180D03*
X036620Y022180D03*
X037740Y022180D03*
X037740Y023180D03*
X037740Y024180D03*
X037740Y020180D03*
X037740Y019180D03*
X037740Y018180D03*
X036620Y018180D03*
X036620Y019180D03*
X036620Y020180D03*
X036620Y016180D03*
X036620Y015180D03*
X036620Y014180D03*
X037740Y014180D03*
X037740Y015180D03*
X037740Y016180D03*
X037740Y012180D03*
X037740Y011180D03*
X036620Y011180D03*
X036620Y012180D03*
X036620Y010180D03*
X037740Y010180D03*
D13*
X030680Y022845D03*
X030680Y023515D03*
X029180Y023515D03*
X029180Y022845D03*
D14*
X029182Y021674D03*
X030682Y021674D03*
D15*
X031054Y027680D03*
X030306Y027680D03*
X026054Y027680D03*
X025306Y027680D03*
X035306Y027680D03*
X036054Y027680D03*
X014054Y027680D03*
X013306Y027680D03*
X009054Y027680D03*
X008306Y027680D03*
X004054Y027680D03*
X003306Y027680D03*
X003806Y004180D03*
X004554Y004180D03*
X008806Y004180D03*
X009554Y004180D03*
X013806Y004180D03*
X014554Y004180D03*
X025306Y004180D03*
X026054Y004180D03*
X030306Y004180D03*
X031054Y004180D03*
X035306Y004180D03*
X036054Y004180D03*
M02*
