G75*
G70*
%OFA0B0*%
%FSLAX24Y24*%
%IPPOS*%
%LPD*%
%AMOC8*
5,1,8,0,0,1.08239X$1,22.5*
%
%ADD10C,0.0000*%
%ADD11C,0.0080*%
%ADD12C,0.0050*%
%ADD13C,0.0040*%
%ADD14C,0.0120*%
%ADD15C,0.0060*%
%ADD16C,0.0010*%
%ADD17R,0.0079X0.0079*%
%ADD18R,0.0059X0.0098*%
%ADD19R,0.0300X0.0180*%
%ADD20C,0.0020*%
D10*
X000180Y000180D02*
X000180Y031676D01*
X039550Y031676D01*
X039550Y000180D01*
X000180Y000180D01*
D11*
X002180Y001930D02*
X002180Y002430D01*
X006180Y002430D02*
X006180Y001930D01*
X007180Y001930D02*
X007180Y002430D01*
X008930Y005630D02*
X008680Y005880D01*
X008680Y006380D01*
X008930Y006630D01*
X009430Y006630D01*
X009680Y006380D01*
X009680Y005880D01*
X009430Y005630D01*
X008930Y005630D01*
X009680Y005880D02*
X009930Y005630D01*
X010430Y005630D01*
X010680Y005880D01*
X010680Y006380D01*
X010930Y006630D01*
X011430Y006630D01*
X011680Y006380D01*
X011680Y005880D01*
X011430Y005630D01*
X010930Y005630D01*
X010680Y005880D01*
X010680Y006380D02*
X010430Y006630D01*
X009930Y006630D01*
X009680Y006380D01*
X011680Y006380D02*
X011930Y006630D01*
X012430Y006630D01*
X012680Y006380D01*
X012680Y005880D01*
X012430Y005630D01*
X011930Y005630D01*
X011680Y005880D01*
X012680Y005880D02*
X012930Y005630D01*
X013430Y005630D01*
X013680Y005880D01*
X013680Y006380D01*
X013930Y006630D01*
X014430Y006630D01*
X014680Y006380D01*
X014680Y005880D01*
X014430Y005630D01*
X013930Y005630D01*
X013680Y005880D01*
X013680Y006380D02*
X013430Y006630D01*
X012930Y006630D01*
X012680Y006380D01*
X015680Y006430D02*
X015680Y005930D01*
X015930Y005680D01*
X016430Y005680D01*
X016680Y005930D01*
X016930Y005680D01*
X017430Y005680D01*
X017680Y005930D01*
X017930Y005680D01*
X018430Y005680D01*
X018680Y005930D01*
X018930Y005680D01*
X019430Y005680D01*
X019680Y005930D01*
X019930Y005680D01*
X020430Y005680D01*
X020680Y005930D01*
X020930Y005680D01*
X021430Y005680D01*
X021680Y005930D01*
X021930Y005680D01*
X022430Y005680D01*
X022680Y005930D01*
X022930Y005680D01*
X023430Y005680D01*
X023680Y005930D01*
X023680Y006430D01*
X023430Y006680D01*
X022930Y006680D01*
X022680Y006430D01*
X022430Y006680D01*
X021930Y006680D01*
X021680Y006430D01*
X021430Y006680D01*
X020930Y006680D01*
X020680Y006430D01*
X020430Y006680D01*
X019930Y006680D01*
X019680Y006430D01*
X019430Y006680D01*
X018930Y006680D01*
X018680Y006430D01*
X018430Y006680D01*
X017930Y006680D01*
X017680Y006430D01*
X017430Y006680D01*
X016930Y006680D01*
X016680Y006430D01*
X016430Y006680D01*
X015930Y006680D01*
X015680Y006430D01*
X016180Y002430D02*
X016180Y001930D01*
X012180Y001930D02*
X012180Y002430D01*
X011180Y002430D02*
X011180Y001930D01*
X023680Y001930D02*
X023680Y002430D01*
X024930Y005680D02*
X025430Y005680D01*
X025680Y005930D01*
X025930Y005680D01*
X026430Y005680D01*
X026680Y005930D01*
X026930Y005680D01*
X027430Y005680D01*
X027680Y005930D01*
X027930Y005680D01*
X028430Y005680D01*
X028680Y005930D01*
X028930Y005680D01*
X029430Y005680D01*
X029680Y005930D01*
X029930Y005680D01*
X030430Y005680D01*
X030680Y005930D01*
X030930Y005680D01*
X031430Y005680D01*
X031680Y005930D01*
X031930Y005680D01*
X032430Y005680D01*
X032680Y005930D01*
X032680Y006430D01*
X032430Y006680D01*
X031930Y006680D01*
X031680Y006430D01*
X031430Y006680D01*
X030930Y006680D01*
X030680Y006430D01*
X030430Y006680D01*
X029930Y006680D01*
X029680Y006430D01*
X029430Y006680D01*
X028930Y006680D01*
X028680Y006430D01*
X028430Y006680D01*
X027930Y006680D01*
X027680Y006430D01*
X027430Y006680D01*
X026930Y006680D01*
X026680Y006430D01*
X026430Y006680D01*
X025930Y006680D01*
X025680Y006430D01*
X025430Y006680D01*
X024930Y006680D01*
X024680Y006430D01*
X024680Y005930D01*
X024930Y005680D01*
X027680Y002430D02*
X027680Y001930D01*
X028680Y001930D02*
X028680Y002430D01*
X032680Y002430D02*
X032680Y001930D01*
X033680Y001930D02*
X033680Y002430D01*
X037680Y002430D02*
X037680Y001930D01*
X034430Y008680D02*
X033930Y008680D01*
X033680Y008930D01*
X033430Y008680D01*
X032930Y008680D01*
X032680Y008930D01*
X032680Y009430D01*
X032930Y009680D01*
X032680Y009930D01*
X032680Y010430D01*
X032930Y010680D01*
X032680Y010930D01*
X032680Y011430D01*
X032930Y011680D01*
X032680Y011930D01*
X032680Y012430D01*
X032930Y012680D01*
X032680Y012930D01*
X032680Y013430D01*
X032930Y013680D01*
X032680Y013930D01*
X032680Y014430D01*
X032930Y014680D01*
X032680Y014930D01*
X032680Y015430D01*
X032930Y015680D01*
X032680Y015930D01*
X032680Y016430D01*
X032930Y016680D01*
X032680Y016930D01*
X032680Y017430D01*
X032930Y017680D01*
X032680Y017930D01*
X032680Y018430D01*
X032930Y018680D01*
X032680Y018930D01*
X032680Y019430D01*
X032930Y019680D01*
X032680Y019930D01*
X032680Y020430D01*
X032930Y020680D01*
X032680Y020930D01*
X032680Y021430D01*
X032930Y021680D01*
X032680Y021930D01*
X032680Y022430D01*
X032930Y022680D01*
X032680Y022930D01*
X032680Y023430D01*
X032930Y023680D01*
X032680Y023930D01*
X032680Y024430D01*
X032930Y024680D01*
X033430Y024680D01*
X033680Y024430D01*
X033680Y023930D01*
X033430Y023680D01*
X033680Y023430D01*
X033680Y022930D01*
X033430Y022680D01*
X033680Y022430D01*
X033680Y021930D01*
X033430Y021680D01*
X033680Y021430D01*
X033680Y020930D01*
X033430Y020680D01*
X033680Y020430D01*
X033680Y019930D01*
X033430Y019680D01*
X033680Y019430D01*
X033680Y018930D01*
X033430Y018680D01*
X033680Y018430D01*
X033680Y017930D01*
X033430Y017680D01*
X033680Y017430D01*
X033680Y016930D01*
X033430Y016680D01*
X033680Y016430D01*
X033680Y015930D01*
X033430Y015680D01*
X033680Y015430D01*
X033680Y014930D01*
X033430Y014680D01*
X033680Y014430D01*
X033680Y013930D01*
X033430Y013680D01*
X033680Y013430D01*
X033680Y012930D01*
X033430Y012680D01*
X033680Y012430D01*
X033680Y011930D01*
X033430Y011680D01*
X033680Y011430D01*
X033680Y010930D01*
X033430Y010680D01*
X033680Y010430D01*
X033680Y009930D01*
X033430Y009680D01*
X033680Y009430D01*
X033680Y008930D01*
X033680Y009430D01*
X033930Y009680D01*
X033680Y009930D01*
X033680Y010430D01*
X033930Y010680D01*
X033680Y010930D01*
X033680Y011430D01*
X033930Y011680D01*
X033680Y011930D01*
X033680Y012430D01*
X033930Y012680D01*
X033680Y012930D01*
X033680Y013430D01*
X033930Y013680D01*
X033680Y013930D01*
X033680Y014430D01*
X033930Y014680D01*
X033680Y014930D01*
X033680Y015430D01*
X033930Y015680D01*
X033680Y015930D01*
X033680Y016430D01*
X033930Y016680D01*
X033680Y016930D01*
X033680Y017430D01*
X033930Y017680D01*
X033680Y017930D01*
X033680Y018430D01*
X033930Y018680D01*
X033680Y018930D01*
X033680Y019430D01*
X033930Y019680D01*
X033680Y019930D01*
X033680Y020430D01*
X033930Y020680D01*
X033680Y020930D01*
X033680Y021430D01*
X033930Y021680D01*
X033680Y021930D01*
X033680Y022430D01*
X033930Y022680D01*
X033680Y022930D01*
X033680Y023430D01*
X033930Y023680D01*
X033680Y023930D01*
X033680Y024430D01*
X033930Y024680D01*
X034430Y024680D01*
X034680Y024430D01*
X034680Y023930D01*
X034430Y023680D01*
X034680Y023430D01*
X034680Y022930D01*
X034430Y022680D01*
X034680Y022430D01*
X034680Y021930D01*
X034430Y021680D01*
X034680Y021430D01*
X034680Y020930D01*
X034430Y020680D01*
X034680Y020430D01*
X034680Y019930D01*
X034430Y019680D01*
X034680Y019430D01*
X034680Y018930D01*
X034430Y018680D01*
X034680Y018430D01*
X034680Y017930D01*
X034430Y017680D01*
X034680Y017430D01*
X034680Y016930D01*
X034430Y016680D01*
X034680Y016430D01*
X034680Y015930D01*
X034430Y015680D01*
X034680Y015430D01*
X034680Y014930D01*
X034430Y014680D01*
X034680Y014430D01*
X034680Y013930D01*
X034430Y013680D01*
X034680Y013430D01*
X034680Y012930D01*
X034430Y012680D01*
X034680Y012430D01*
X034680Y011930D01*
X034430Y011680D01*
X034680Y011430D01*
X034680Y010930D01*
X034430Y010680D01*
X034680Y010430D01*
X034680Y009930D01*
X034430Y009680D01*
X034680Y009430D01*
X034680Y008930D01*
X034430Y008680D01*
X030430Y024680D02*
X029930Y024680D01*
X029680Y024930D01*
X029430Y024680D01*
X028930Y024680D01*
X028680Y024930D01*
X028430Y024680D01*
X027930Y024680D01*
X027680Y024930D01*
X027430Y024680D01*
X026930Y024680D01*
X026680Y024930D01*
X026430Y024680D01*
X025930Y024680D01*
X025680Y024930D01*
X025430Y024680D01*
X024930Y024680D01*
X024680Y024930D01*
X024430Y024680D01*
X023930Y024680D01*
X023680Y024930D01*
X023430Y024680D01*
X022930Y024680D01*
X022680Y024930D01*
X022680Y025430D01*
X022930Y025680D01*
X023430Y025680D01*
X023680Y025430D01*
X023930Y025680D01*
X024430Y025680D01*
X024680Y025430D01*
X024930Y025680D01*
X025430Y025680D01*
X025680Y025430D01*
X025930Y025680D01*
X026430Y025680D01*
X026680Y025430D01*
X026930Y025680D01*
X027430Y025680D01*
X027680Y025430D01*
X027930Y025680D01*
X028430Y025680D01*
X028680Y025430D01*
X028930Y025680D01*
X029430Y025680D01*
X029680Y025430D01*
X029930Y025680D01*
X030430Y025680D01*
X030680Y025430D01*
X030680Y024930D01*
X030430Y024680D01*
X028680Y029430D02*
X028680Y029930D01*
X027680Y029930D02*
X027680Y029430D01*
X023680Y029430D02*
X023680Y029930D01*
X021430Y025680D02*
X020930Y025680D01*
X020680Y025430D01*
X020430Y025680D01*
X019930Y025680D01*
X019680Y025430D01*
X019430Y025680D01*
X018930Y025680D01*
X018680Y025430D01*
X018430Y025680D01*
X017930Y025680D01*
X017680Y025430D01*
X017430Y025680D01*
X016930Y025680D01*
X016680Y025430D01*
X016430Y025680D01*
X015930Y025680D01*
X015680Y025430D01*
X015430Y025680D01*
X014930Y025680D01*
X014680Y025430D01*
X014430Y025680D01*
X013930Y025680D01*
X013680Y025430D01*
X013680Y024930D01*
X013930Y024680D01*
X014430Y024680D01*
X014680Y024930D01*
X014930Y024680D01*
X015430Y024680D01*
X015680Y024930D01*
X015930Y024680D01*
X016430Y024680D01*
X016680Y024930D01*
X016930Y024680D01*
X017430Y024680D01*
X017680Y024930D01*
X017930Y024680D01*
X018430Y024680D01*
X018680Y024930D01*
X018930Y024680D01*
X019430Y024680D01*
X019680Y024930D01*
X019930Y024680D01*
X020430Y024680D01*
X020680Y024930D01*
X020930Y024680D01*
X021430Y024680D01*
X021680Y024930D01*
X021680Y025430D01*
X021430Y025680D01*
X015680Y029430D02*
X015680Y029930D01*
X011680Y029930D02*
X011680Y029430D01*
X010680Y029430D02*
X010680Y029930D01*
X006680Y029930D02*
X006680Y029430D01*
X005680Y029430D02*
X005680Y029930D01*
X001680Y029930D02*
X001680Y029430D01*
X005430Y025680D02*
X005930Y025680D01*
X006180Y025430D01*
X006430Y025680D01*
X006930Y025680D01*
X007180Y025430D01*
X007430Y025680D01*
X007930Y025680D01*
X008180Y025430D01*
X008430Y025680D01*
X008930Y025680D01*
X009180Y025430D01*
X009430Y025680D01*
X009930Y025680D01*
X010180Y025430D01*
X010430Y025680D01*
X010930Y025680D01*
X011180Y025430D01*
X011430Y025680D01*
X011930Y025680D01*
X012180Y025430D01*
X012430Y025680D01*
X012930Y025680D01*
X013180Y025430D01*
X013180Y024930D01*
X012930Y024680D01*
X012430Y024680D01*
X012180Y024930D01*
X011930Y024680D01*
X011430Y024680D01*
X011180Y024930D01*
X010930Y024680D01*
X010430Y024680D01*
X010180Y024930D01*
X009930Y024680D01*
X009430Y024680D01*
X009180Y024930D01*
X008930Y024680D01*
X008430Y024680D01*
X008180Y024930D01*
X007930Y024680D01*
X007430Y024680D01*
X007180Y024930D01*
X006930Y024680D01*
X006430Y024680D01*
X006180Y024930D01*
X005930Y024680D01*
X005430Y024680D01*
X005180Y024930D01*
X005180Y025430D01*
X005430Y025680D01*
X006680Y020930D02*
X006680Y020430D01*
X001680Y020430D02*
X001680Y020930D01*
X032680Y029430D02*
X032680Y029930D01*
X033680Y029930D02*
X033680Y029430D01*
X037680Y029430D02*
X037680Y029930D01*
D12*
X037435Y030675D02*
X037585Y030825D01*
X037585Y030975D01*
X037435Y031125D01*
X037275Y031050D02*
X037200Y031125D01*
X037050Y031125D01*
X036974Y031050D01*
X036818Y031125D02*
X036668Y030975D01*
X036668Y030825D01*
X036818Y030675D01*
X036974Y030675D02*
X037275Y030975D01*
X037275Y031050D01*
X037275Y030675D02*
X036974Y030675D01*
X036507Y030750D02*
X036432Y030675D01*
X036282Y030675D01*
X036207Y030750D01*
X036052Y030750D02*
X036052Y030675D01*
X035977Y030675D01*
X035977Y030750D01*
X036052Y030750D01*
X035817Y030900D02*
X035517Y030900D01*
X035742Y031125D01*
X035742Y030675D01*
X035356Y030900D02*
X035056Y030900D01*
X034896Y030675D02*
X034896Y031125D01*
X034596Y031125D02*
X034596Y030675D01*
X034436Y030750D02*
X034436Y031050D01*
X034361Y031125D01*
X034210Y031125D01*
X034135Y031050D01*
X034135Y030750D01*
X034210Y030675D01*
X034361Y030675D01*
X034436Y030750D01*
X034596Y031125D02*
X034896Y030675D01*
X033975Y030750D02*
X033900Y030675D01*
X033750Y030675D01*
X033675Y030750D01*
X033675Y031050D01*
X033750Y031125D01*
X033900Y031125D01*
X033975Y031050D01*
X032585Y030975D02*
X032585Y030825D01*
X032435Y030675D01*
X032275Y030675D02*
X031974Y030675D01*
X032275Y030975D01*
X032275Y031050D01*
X032200Y031125D01*
X032050Y031125D01*
X031974Y031050D01*
X031818Y031125D02*
X031668Y030975D01*
X031668Y030825D01*
X031818Y030675D01*
X031507Y030675D02*
X031207Y030675D01*
X031357Y030675D02*
X031357Y031125D01*
X031207Y030975D01*
X031052Y030750D02*
X031052Y030675D01*
X030977Y030675D01*
X030977Y030750D01*
X031052Y030750D01*
X030817Y030900D02*
X030517Y030900D01*
X030742Y031125D01*
X030742Y030675D01*
X030356Y030900D02*
X030056Y030900D01*
X029896Y030675D02*
X029896Y031125D01*
X029596Y031125D02*
X029596Y030675D01*
X029436Y030750D02*
X029436Y031050D01*
X029361Y031125D01*
X029210Y031125D01*
X029135Y031050D01*
X029135Y030750D01*
X029210Y030675D01*
X029361Y030675D01*
X029436Y030750D01*
X029596Y031125D02*
X029896Y030675D01*
X028975Y030750D02*
X028900Y030675D01*
X028750Y030675D01*
X028675Y030750D01*
X028675Y031050D01*
X028750Y031125D01*
X028900Y031125D01*
X028975Y031050D01*
X027585Y030975D02*
X027585Y030825D01*
X027435Y030675D01*
X027275Y030675D02*
X026974Y030675D01*
X027125Y030675D02*
X027125Y031125D01*
X026974Y030975D01*
X026818Y031125D02*
X026668Y030975D01*
X026668Y030825D01*
X026818Y030675D01*
X026507Y030675D02*
X026207Y030675D01*
X026507Y030975D01*
X026507Y031050D01*
X026432Y031125D01*
X026282Y031125D01*
X026207Y031050D01*
X026052Y030750D02*
X026052Y030675D01*
X025977Y030675D01*
X025977Y030750D01*
X026052Y030750D01*
X025817Y030900D02*
X025517Y030900D01*
X025742Y031125D01*
X025742Y030675D01*
X025356Y030900D02*
X025056Y030900D01*
X024896Y030675D02*
X024896Y031125D01*
X024596Y031125D02*
X024596Y030675D01*
X024436Y030750D02*
X024436Y031050D01*
X024361Y031125D01*
X024210Y031125D01*
X024135Y031050D01*
X024135Y030750D01*
X024210Y030675D01*
X024361Y030675D01*
X024436Y030750D01*
X024596Y031125D02*
X024896Y030675D01*
X023975Y030750D02*
X023900Y030675D01*
X023750Y030675D01*
X023675Y030750D01*
X023675Y031050D01*
X023750Y031125D01*
X023900Y031125D01*
X023975Y031050D01*
X027435Y031125D02*
X027585Y030975D01*
X032435Y031125D02*
X032585Y030975D01*
X036207Y031050D02*
X036282Y031125D01*
X036432Y031125D01*
X036507Y031050D01*
X036507Y030975D01*
X036432Y030900D01*
X036507Y030825D01*
X036507Y030750D01*
X036432Y030900D02*
X036357Y030900D01*
X034300Y024575D02*
X034150Y024575D01*
X034075Y024500D01*
X034075Y024425D01*
X034150Y024275D01*
X033925Y024275D01*
X033925Y024575D01*
X034300Y024575D02*
X034375Y024500D01*
X034375Y024350D01*
X034300Y024275D01*
X034300Y024114D02*
X034225Y024114D01*
X034150Y024039D01*
X034150Y023889D01*
X034075Y023814D01*
X034000Y023814D01*
X033925Y023889D01*
X033925Y024039D01*
X034000Y024114D01*
X034300Y024114D02*
X034375Y024039D01*
X034375Y023889D01*
X034300Y023814D01*
X034375Y023657D02*
X034375Y023507D01*
X034375Y023582D02*
X033925Y023582D01*
X033925Y023507D02*
X033925Y023657D01*
X034375Y023347D02*
X034375Y023047D01*
X033925Y023047D01*
X030575Y024060D02*
X030575Y024135D01*
X030500Y024210D01*
X030275Y024210D01*
X030275Y024060D01*
X030350Y023985D01*
X030500Y023985D01*
X030575Y024060D01*
X030425Y024360D02*
X030275Y024210D01*
X030114Y024135D02*
X030114Y024060D01*
X030039Y023985D01*
X029889Y023985D01*
X029814Y024060D01*
X029889Y024210D02*
X030039Y024210D01*
X030114Y024135D01*
X030114Y024360D02*
X030039Y024435D01*
X029889Y024435D01*
X029814Y024360D01*
X029814Y024285D01*
X029889Y024210D01*
X029657Y023985D02*
X029507Y023985D01*
X029582Y023985D02*
X029582Y024435D01*
X029507Y024435D02*
X029657Y024435D01*
X029347Y023985D02*
X029047Y023985D01*
X029047Y024435D01*
X030425Y024360D02*
X030575Y024435D01*
X021575Y024435D02*
X021575Y024360D01*
X021275Y024060D01*
X021275Y023985D01*
X021114Y024060D02*
X021039Y023985D01*
X020889Y023985D01*
X020814Y024060D01*
X020889Y024210D02*
X021039Y024210D01*
X021114Y024135D01*
X021114Y024060D01*
X020889Y024210D02*
X020814Y024285D01*
X020814Y024360D01*
X020889Y024435D01*
X021039Y024435D01*
X021114Y024360D01*
X021275Y024435D02*
X021575Y024435D01*
X020657Y024435D02*
X020507Y024435D01*
X020582Y024435D02*
X020582Y023985D01*
X020507Y023985D02*
X020657Y023985D01*
X020347Y023985D02*
X020047Y023985D01*
X020047Y024435D01*
X013075Y024360D02*
X013075Y024285D01*
X013000Y024210D01*
X013075Y024135D01*
X013075Y024060D01*
X013000Y023985D01*
X012850Y023985D01*
X012775Y024060D01*
X012925Y024210D02*
X013000Y024210D01*
X013075Y024360D02*
X013000Y024435D01*
X012850Y024435D01*
X012775Y024360D01*
X012614Y024360D02*
X012614Y024210D01*
X012539Y024135D01*
X012314Y024135D01*
X012314Y023985D02*
X012314Y024435D01*
X012539Y024435D01*
X012614Y024360D01*
X012154Y024435D02*
X012004Y024435D01*
X012079Y024435D02*
X012079Y024060D01*
X012004Y023985D01*
X011929Y023985D01*
X011854Y024060D01*
X004124Y021425D02*
X003823Y021425D01*
X003823Y021875D01*
X003663Y021725D02*
X003663Y021425D01*
X003663Y021650D02*
X003363Y021650D01*
X003363Y021725D02*
X003363Y021425D01*
X003206Y021425D02*
X003056Y021425D01*
X003131Y021425D02*
X003131Y021875D01*
X003056Y021875D02*
X003206Y021875D01*
X003363Y021725D02*
X003513Y021875D01*
X003663Y021725D01*
X002896Y021650D02*
X002821Y021575D01*
X002596Y021575D01*
X002746Y021575D02*
X002896Y021425D01*
X002896Y021650D02*
X002896Y021800D01*
X002821Y021875D01*
X002596Y021875D01*
X002596Y021425D01*
X002436Y021425D02*
X002135Y021425D01*
X002135Y021875D01*
X002436Y021875D01*
X002286Y021650D02*
X002135Y021650D01*
X001975Y021575D02*
X001975Y021500D01*
X001900Y021425D01*
X001750Y021425D01*
X001675Y021500D01*
X001750Y021650D02*
X001900Y021650D01*
X001975Y021575D01*
X001975Y021800D02*
X001900Y021875D01*
X001750Y021875D01*
X001675Y021800D01*
X001675Y021725D01*
X001750Y021650D01*
X009555Y015241D02*
X009555Y015090D01*
X009630Y015015D01*
X009555Y014855D02*
X009930Y014855D01*
X010005Y014780D01*
X010005Y014630D01*
X009930Y014555D01*
X009555Y014555D01*
X010005Y015015D02*
X009705Y015316D01*
X009630Y015316D01*
X009555Y015241D01*
X010005Y015316D02*
X010005Y015015D01*
X015675Y007375D02*
X015675Y006925D01*
X015975Y006925D01*
X016135Y006925D02*
X016286Y006925D01*
X016210Y006925D02*
X016210Y007375D01*
X016135Y007375D02*
X016286Y007375D01*
X016442Y007300D02*
X016442Y007225D01*
X016517Y007150D01*
X016668Y007150D01*
X016743Y007075D01*
X016743Y007000D01*
X016668Y006925D01*
X016517Y006925D01*
X016442Y007000D01*
X016442Y007300D02*
X016517Y007375D01*
X016668Y007375D01*
X016743Y007300D01*
X016903Y007300D02*
X016978Y007375D01*
X017128Y007375D01*
X017203Y007300D01*
X017203Y007225D01*
X016903Y006925D01*
X017203Y006925D01*
X015928Y001185D02*
X016078Y001035D01*
X016078Y000885D01*
X015928Y000735D01*
X015768Y000735D02*
X015468Y000735D01*
X015768Y001035D01*
X015768Y001110D01*
X015693Y001185D01*
X015543Y001185D01*
X015468Y001110D01*
X015311Y001185D02*
X015161Y001035D01*
X015161Y000885D01*
X015311Y000735D01*
X015001Y000735D02*
X014700Y000735D01*
X014850Y000735D02*
X014850Y001185D01*
X014700Y001035D01*
X014545Y000810D02*
X014545Y000735D01*
X014470Y000735D01*
X014470Y000810D01*
X014545Y000810D01*
X014310Y000735D02*
X014010Y000735D01*
X014310Y001035D01*
X014310Y001110D01*
X014235Y001185D01*
X014085Y001185D01*
X014010Y001110D01*
X013850Y000960D02*
X013549Y000960D01*
X013389Y000735D02*
X013389Y001185D01*
X013089Y001185D02*
X013089Y000735D01*
X012929Y000810D02*
X012929Y001110D01*
X012854Y001185D01*
X012704Y001185D01*
X012629Y001110D01*
X012629Y000810D01*
X012704Y000735D01*
X012854Y000735D01*
X012929Y000810D01*
X013089Y001185D02*
X013389Y000735D01*
X012468Y000810D02*
X012393Y000735D01*
X012243Y000735D01*
X012168Y000810D01*
X012168Y001110D01*
X012243Y001185D01*
X012393Y001185D01*
X012468Y001110D01*
X011078Y001035D02*
X011078Y000885D01*
X010928Y000735D01*
X010768Y000735D02*
X010468Y000735D01*
X010618Y000735D02*
X010618Y001185D01*
X010468Y001035D01*
X010311Y001185D02*
X010161Y001035D01*
X010161Y000885D01*
X010311Y000735D01*
X010001Y000735D02*
X009700Y000735D01*
X010001Y001035D01*
X010001Y001110D01*
X009926Y001185D01*
X009775Y001185D01*
X009700Y001110D01*
X009545Y000810D02*
X009545Y000735D01*
X009470Y000735D01*
X009470Y000810D01*
X009545Y000810D01*
X009310Y000735D02*
X009010Y000735D01*
X009310Y001035D01*
X009310Y001110D01*
X009235Y001185D01*
X009085Y001185D01*
X009010Y001110D01*
X008850Y000960D02*
X008549Y000960D01*
X008389Y000735D02*
X008389Y001185D01*
X008089Y001185D02*
X008089Y000735D01*
X007929Y000810D02*
X007929Y001110D01*
X007854Y001185D01*
X007704Y001185D01*
X007629Y001110D01*
X007629Y000810D01*
X007704Y000735D01*
X007854Y000735D01*
X007929Y000810D01*
X008089Y001185D02*
X008389Y000735D01*
X007468Y000810D02*
X007393Y000735D01*
X007243Y000735D01*
X007168Y000810D01*
X007168Y001110D01*
X007243Y001185D01*
X007393Y001185D01*
X007468Y001110D01*
X006078Y001035D02*
X006078Y000885D01*
X005928Y000735D01*
X005768Y000735D02*
X005468Y000735D01*
X005768Y001035D01*
X005768Y001110D01*
X005693Y001185D01*
X005543Y001185D01*
X005468Y001110D01*
X005311Y001185D02*
X005161Y001035D01*
X005161Y000885D01*
X005311Y000735D01*
X005001Y000810D02*
X004926Y000735D01*
X004775Y000735D01*
X004700Y000810D01*
X004545Y000810D02*
X004545Y000735D01*
X004470Y000735D01*
X004470Y000810D01*
X004545Y000810D01*
X004310Y000735D02*
X004010Y000735D01*
X004310Y001035D01*
X004310Y001110D01*
X004235Y001185D01*
X004085Y001185D01*
X004010Y001110D01*
X003850Y000960D02*
X003549Y000960D01*
X003389Y000735D02*
X003389Y001185D01*
X003089Y001185D02*
X003089Y000735D01*
X002929Y000810D02*
X002929Y001110D01*
X002854Y001185D01*
X002704Y001185D01*
X002629Y001110D01*
X002629Y000810D01*
X002704Y000735D01*
X002854Y000735D01*
X002929Y000810D01*
X003089Y001185D02*
X003389Y000735D01*
X002468Y000810D02*
X002393Y000735D01*
X002243Y000735D01*
X002168Y000810D01*
X002168Y001110D01*
X002243Y001185D01*
X002393Y001185D01*
X002468Y001110D01*
X004700Y001110D02*
X004775Y001185D01*
X004926Y001185D01*
X005001Y001110D01*
X005001Y001035D01*
X004926Y000960D01*
X005001Y000885D01*
X005001Y000810D01*
X004926Y000960D02*
X004850Y000960D01*
X005928Y001185D02*
X006078Y001035D01*
X010928Y001185D02*
X011078Y001035D01*
X023668Y001110D02*
X023668Y000810D01*
X023743Y000735D01*
X023893Y000735D01*
X023968Y000810D01*
X024129Y000810D02*
X024204Y000735D01*
X024354Y000735D01*
X024429Y000810D01*
X024429Y001110D01*
X024354Y001185D01*
X024204Y001185D01*
X024129Y001110D01*
X024129Y000810D01*
X023968Y001110D02*
X023893Y001185D01*
X023743Y001185D01*
X023668Y001110D01*
X024589Y001185D02*
X024589Y000735D01*
X024889Y000735D02*
X024589Y001185D01*
X024889Y001185D02*
X024889Y000735D01*
X025049Y000960D02*
X025350Y000960D01*
X025510Y001035D02*
X025660Y001185D01*
X025660Y000735D01*
X025510Y000735D02*
X025810Y000735D01*
X025970Y000735D02*
X026045Y000735D01*
X026045Y000810D01*
X025970Y000810D01*
X025970Y000735D01*
X026200Y000810D02*
X026275Y000735D01*
X026426Y000735D01*
X026501Y000810D01*
X026501Y000885D01*
X026426Y000960D01*
X026350Y000960D01*
X026426Y000960D02*
X026501Y001035D01*
X026501Y001110D01*
X026426Y001185D01*
X026275Y001185D01*
X026200Y001110D01*
X026661Y001035D02*
X026661Y000885D01*
X026811Y000735D01*
X026968Y000735D02*
X027268Y000735D01*
X027118Y000735D02*
X027118Y001185D01*
X026968Y001035D01*
X026811Y001185D02*
X026661Y001035D01*
X027428Y001185D02*
X027578Y001035D01*
X027578Y000885D01*
X027428Y000735D01*
X028668Y000810D02*
X028743Y000735D01*
X028893Y000735D01*
X028968Y000810D01*
X029129Y000810D02*
X029129Y001110D01*
X029204Y001185D01*
X029354Y001185D01*
X029429Y001110D01*
X029429Y000810D01*
X029354Y000735D01*
X029204Y000735D01*
X029129Y000810D01*
X028968Y001110D02*
X028893Y001185D01*
X028743Y001185D01*
X028668Y001110D01*
X028668Y000810D01*
X029589Y000735D02*
X029589Y001185D01*
X029889Y000735D01*
X029889Y001185D01*
X030049Y000960D02*
X030350Y000960D01*
X030510Y001035D02*
X030660Y001185D01*
X030660Y000735D01*
X030510Y000735D02*
X030810Y000735D01*
X030970Y000735D02*
X031045Y000735D01*
X031045Y000810D01*
X030970Y000810D01*
X030970Y000735D01*
X031200Y000735D02*
X031501Y001035D01*
X031501Y001110D01*
X031426Y001185D01*
X031275Y001185D01*
X031200Y001110D01*
X031200Y000735D02*
X031501Y000735D01*
X031661Y000885D02*
X031661Y001035D01*
X031811Y001185D01*
X031968Y001110D02*
X032043Y001185D01*
X032193Y001185D01*
X032268Y001110D01*
X032268Y001035D01*
X031968Y000735D01*
X032268Y000735D01*
X032428Y000735D02*
X032578Y000885D01*
X032578Y001035D01*
X032428Y001185D01*
X031811Y000735D02*
X031661Y000885D01*
X033668Y000810D02*
X033743Y000735D01*
X033893Y000735D01*
X033968Y000810D01*
X034129Y000810D02*
X034204Y000735D01*
X034354Y000735D01*
X034429Y000810D01*
X034429Y001110D01*
X034354Y001185D01*
X034204Y001185D01*
X034129Y001110D01*
X034129Y000810D01*
X033968Y001110D02*
X033893Y001185D01*
X033743Y001185D01*
X033668Y001110D01*
X033668Y000810D01*
X034589Y000735D02*
X034589Y001185D01*
X034889Y000735D01*
X034889Y001185D01*
X035049Y000960D02*
X035350Y000960D01*
X035510Y001035D02*
X035660Y001185D01*
X035660Y000735D01*
X035510Y000735D02*
X035810Y000735D01*
X035970Y000735D02*
X036045Y000735D01*
X036045Y000810D01*
X035970Y000810D01*
X035970Y000735D01*
X036200Y000735D02*
X036501Y000735D01*
X036350Y000735D02*
X036350Y001185D01*
X036200Y001035D01*
X036661Y001035D02*
X036661Y000885D01*
X036811Y000735D01*
X036968Y000735D02*
X037268Y000735D01*
X037118Y000735D02*
X037118Y001185D01*
X036968Y001035D01*
X036811Y001185D02*
X036661Y001035D01*
X037428Y001185D02*
X037578Y001035D01*
X037578Y000885D01*
X037428Y000735D01*
X033435Y008675D02*
X032985Y008675D01*
X033435Y008675D02*
X033435Y008975D01*
X033435Y009135D02*
X033435Y009286D01*
X033435Y009210D02*
X032985Y009210D01*
X032985Y009135D02*
X032985Y009286D01*
X033060Y009442D02*
X033135Y009442D01*
X033210Y009517D01*
X033210Y009668D01*
X033285Y009743D01*
X033360Y009743D01*
X033435Y009668D01*
X033435Y009517D01*
X033360Y009442D01*
X033060Y009442D02*
X032985Y009517D01*
X032985Y009668D01*
X033060Y009743D01*
X033210Y009903D02*
X032985Y010128D01*
X033435Y010128D01*
X033210Y010203D02*
X033210Y009903D01*
X026203Y007300D02*
X026203Y007225D01*
X026128Y007150D01*
X026203Y007075D01*
X026203Y007000D01*
X026128Y006925D01*
X025978Y006925D01*
X025903Y007000D01*
X025743Y007000D02*
X025668Y006925D01*
X025517Y006925D01*
X025442Y007000D01*
X025517Y007150D02*
X025442Y007225D01*
X025442Y007300D01*
X025517Y007375D01*
X025668Y007375D01*
X025743Y007300D01*
X025903Y007300D02*
X025978Y007375D01*
X026128Y007375D01*
X026203Y007300D01*
X026128Y007150D02*
X026053Y007150D01*
X025743Y007075D02*
X025743Y007000D01*
X025743Y007075D02*
X025668Y007150D01*
X025517Y007150D01*
X025286Y006925D02*
X025135Y006925D01*
X025210Y006925D02*
X025210Y007375D01*
X025135Y007375D02*
X025286Y007375D01*
X024975Y006925D02*
X024675Y006925D01*
X024675Y007375D01*
X021430Y015055D02*
X021055Y015055D01*
X021055Y015355D02*
X021430Y015355D01*
X021505Y015280D01*
X021505Y015130D01*
X021430Y015055D01*
X021505Y015515D02*
X021505Y015816D01*
X021505Y015666D02*
X021055Y015666D01*
X021205Y015515D01*
X015435Y030675D02*
X015585Y030825D01*
X015585Y030975D01*
X015435Y031125D01*
X015125Y031125D02*
X015125Y030675D01*
X015275Y030675D02*
X014974Y030675D01*
X014818Y030675D02*
X014668Y030825D01*
X014668Y030975D01*
X014818Y031125D01*
X014974Y030975D02*
X015125Y031125D01*
X014507Y031050D02*
X014507Y030975D01*
X014432Y030900D01*
X014507Y030825D01*
X014507Y030750D01*
X014432Y030675D01*
X014282Y030675D01*
X014207Y030750D01*
X014052Y030750D02*
X014052Y030675D01*
X013977Y030675D01*
X013977Y030750D01*
X014052Y030750D01*
X013817Y030750D02*
X013742Y030675D01*
X013592Y030675D01*
X013517Y030750D01*
X013667Y030900D02*
X013742Y030900D01*
X013817Y030825D01*
X013817Y030750D01*
X013742Y030900D02*
X013817Y030975D01*
X013817Y031050D01*
X013742Y031125D01*
X013592Y031125D01*
X013517Y031050D01*
X013356Y030900D02*
X013056Y030900D01*
X012896Y030675D02*
X012896Y031125D01*
X012596Y031125D02*
X012596Y030675D01*
X012436Y030750D02*
X012436Y031050D01*
X012361Y031125D01*
X012210Y031125D01*
X012135Y031050D01*
X012135Y030750D01*
X012210Y030675D01*
X012361Y030675D01*
X012436Y030750D01*
X012596Y031125D02*
X012896Y030675D01*
X011975Y030750D02*
X011900Y030675D01*
X011750Y030675D01*
X011675Y030750D01*
X011675Y031050D01*
X011750Y031125D01*
X011900Y031125D01*
X011975Y031050D01*
X010585Y030975D02*
X010585Y030825D01*
X010435Y030675D01*
X010275Y030675D02*
X009974Y030675D01*
X010275Y030975D01*
X010275Y031050D01*
X010200Y031125D01*
X010050Y031125D01*
X009974Y031050D01*
X009818Y031125D02*
X009668Y030975D01*
X009668Y030825D01*
X009818Y030675D01*
X009507Y030675D02*
X009207Y030675D01*
X009507Y030975D01*
X009507Y031050D01*
X009432Y031125D01*
X009282Y031125D01*
X009207Y031050D01*
X009052Y030750D02*
X009052Y030675D01*
X008977Y030675D01*
X008977Y030750D01*
X009052Y030750D01*
X008817Y030750D02*
X008742Y030675D01*
X008592Y030675D01*
X008517Y030750D01*
X008667Y030900D02*
X008742Y030900D01*
X008817Y030825D01*
X008817Y030750D01*
X008742Y030900D02*
X008817Y030975D01*
X008817Y031050D01*
X008742Y031125D01*
X008592Y031125D01*
X008517Y031050D01*
X008356Y030900D02*
X008056Y030900D01*
X007896Y030675D02*
X007896Y031125D01*
X007596Y031125D02*
X007896Y030675D01*
X007596Y030675D02*
X007596Y031125D01*
X007436Y031050D02*
X007436Y030750D01*
X007361Y030675D01*
X007210Y030675D01*
X007135Y030750D01*
X007135Y031050D01*
X007210Y031125D01*
X007361Y031125D01*
X007436Y031050D01*
X006975Y031050D02*
X006900Y031125D01*
X006750Y031125D01*
X006675Y031050D01*
X006675Y030750D01*
X006750Y030675D01*
X006900Y030675D01*
X006975Y030750D01*
X005585Y030825D02*
X005585Y030975D01*
X005435Y031125D01*
X005125Y031125D02*
X005125Y030675D01*
X005275Y030675D02*
X004974Y030675D01*
X004818Y030675D02*
X004668Y030825D01*
X004668Y030975D01*
X004818Y031125D01*
X004974Y030975D02*
X005125Y031125D01*
X005435Y030675D02*
X005585Y030825D01*
X004507Y030675D02*
X004207Y030675D01*
X004357Y030675D02*
X004357Y031125D01*
X004207Y030975D01*
X004052Y030750D02*
X003977Y030750D01*
X003977Y030675D01*
X004052Y030675D01*
X004052Y030750D01*
X003817Y030750D02*
X003742Y030675D01*
X003592Y030675D01*
X003517Y030750D01*
X003667Y030900D02*
X003742Y030900D01*
X003817Y030825D01*
X003817Y030750D01*
X003742Y030900D02*
X003817Y030975D01*
X003817Y031050D01*
X003742Y031125D01*
X003592Y031125D01*
X003517Y031050D01*
X003356Y030900D02*
X003056Y030900D01*
X002896Y030675D02*
X002896Y031125D01*
X002596Y031125D02*
X002596Y030675D01*
X002436Y030750D02*
X002436Y031050D01*
X002361Y031125D01*
X002210Y031125D01*
X002135Y031050D01*
X002135Y030750D01*
X002210Y030675D01*
X002361Y030675D01*
X002436Y030750D01*
X002596Y031125D02*
X002896Y030675D01*
X001975Y030750D02*
X001900Y030675D01*
X001750Y030675D01*
X001675Y030750D01*
X001675Y031050D01*
X001750Y031125D01*
X001900Y031125D01*
X001975Y031050D01*
X010435Y031125D02*
X010585Y030975D01*
X014207Y031050D02*
X014282Y031125D01*
X014432Y031125D01*
X014507Y031050D01*
X014432Y030900D02*
X014357Y030900D01*
D13*
X013891Y028660D02*
X013737Y028660D01*
X013660Y028584D01*
X013660Y028507D01*
X013737Y028430D01*
X013967Y028430D01*
X013967Y028277D02*
X013967Y028584D01*
X013891Y028660D01*
X013967Y028277D02*
X013891Y028200D01*
X013737Y028200D01*
X013660Y028277D01*
X013507Y028277D02*
X013430Y028200D01*
X013277Y028200D01*
X013200Y028277D01*
X013200Y028584D01*
X013277Y028660D01*
X013430Y028660D01*
X013507Y028584D01*
X008967Y028584D02*
X008967Y028507D01*
X008891Y028430D01*
X008737Y028430D01*
X008660Y028507D01*
X008660Y028584D01*
X008737Y028660D01*
X008891Y028660D01*
X008967Y028584D01*
X008891Y028430D02*
X008967Y028353D01*
X008967Y028277D01*
X008891Y028200D01*
X008737Y028200D01*
X008660Y028277D01*
X008660Y028353D01*
X008737Y028430D01*
X008507Y028277D02*
X008430Y028200D01*
X008277Y028200D01*
X008200Y028277D01*
X008200Y028584D01*
X008277Y028660D01*
X008430Y028660D01*
X008507Y028584D01*
X003967Y028584D02*
X003660Y028277D01*
X003660Y028200D01*
X003507Y028277D02*
X003430Y028200D01*
X003277Y028200D01*
X003200Y028277D01*
X003200Y028584D01*
X003277Y028660D01*
X003430Y028660D01*
X003507Y028584D01*
X003660Y028660D02*
X003967Y028660D01*
X003967Y028584D01*
X025200Y028584D02*
X025200Y028277D01*
X025277Y028200D01*
X025430Y028200D01*
X025507Y028277D01*
X025660Y028200D02*
X025967Y028200D01*
X025814Y028200D02*
X025814Y028660D01*
X025660Y028507D01*
X025507Y028584D02*
X025430Y028660D01*
X025277Y028660D01*
X025200Y028584D01*
X026121Y028584D02*
X026121Y028277D01*
X026428Y028584D01*
X026428Y028277D01*
X026351Y028200D01*
X026198Y028200D01*
X026121Y028277D01*
X026121Y028584D02*
X026198Y028660D01*
X026351Y028660D01*
X026428Y028584D01*
X030200Y028584D02*
X030200Y028277D01*
X030277Y028200D01*
X030430Y028200D01*
X030507Y028277D01*
X030660Y028200D02*
X030967Y028200D01*
X030814Y028200D02*
X030814Y028660D01*
X030660Y028507D01*
X030507Y028584D02*
X030430Y028660D01*
X030277Y028660D01*
X030200Y028584D01*
X031121Y028507D02*
X031274Y028660D01*
X031274Y028200D01*
X031121Y028200D02*
X031428Y028200D01*
X035200Y028277D02*
X035277Y028200D01*
X035430Y028200D01*
X035507Y028277D01*
X035660Y028200D02*
X035967Y028200D01*
X035814Y028200D02*
X035814Y028660D01*
X035660Y028507D01*
X035507Y028584D02*
X035430Y028660D01*
X035277Y028660D01*
X035200Y028584D01*
X035200Y028277D01*
X036121Y028200D02*
X036428Y028507D01*
X036428Y028584D01*
X036351Y028660D01*
X036198Y028660D01*
X036121Y028584D01*
X036121Y028200D02*
X036428Y028200D01*
X036700Y025160D02*
X036700Y024700D01*
X037007Y024700D01*
X037160Y024700D02*
X037160Y025160D01*
X037467Y025160D01*
X037621Y025160D02*
X037621Y024700D01*
X037851Y024700D01*
X037928Y024777D01*
X037928Y025084D01*
X037851Y025160D01*
X037621Y025160D01*
X037314Y024930D02*
X037160Y024930D01*
X037160Y024700D02*
X037467Y024700D01*
X037467Y024160D02*
X037160Y024160D01*
X037160Y023700D01*
X037467Y023700D01*
X037621Y023700D02*
X037621Y024160D01*
X037851Y024160D01*
X037928Y024084D01*
X037928Y023777D01*
X037851Y023700D01*
X037621Y023700D01*
X037314Y023930D02*
X037160Y023930D01*
X036963Y023983D02*
X036986Y023960D01*
X037012Y023940D01*
X037040Y023923D01*
X037069Y023909D01*
X037100Y023898D01*
X037131Y023891D01*
X037164Y023887D01*
X037196Y023887D01*
X037229Y023891D01*
X037260Y023898D01*
X037291Y023909D01*
X037320Y023923D01*
X037348Y023940D01*
X037374Y023960D01*
X037397Y023983D01*
X037397Y024377D02*
X037374Y024400D01*
X037348Y024420D01*
X037320Y024437D01*
X037291Y024451D01*
X037260Y024462D01*
X037229Y024469D01*
X037196Y024473D01*
X037164Y024473D01*
X037131Y024469D01*
X037100Y024462D01*
X037069Y024451D01*
X037040Y024437D01*
X037012Y024420D01*
X036986Y024400D01*
X036963Y024377D01*
X036700Y024160D02*
X036700Y023700D01*
X037007Y023700D01*
X036963Y023377D02*
X036986Y023400D01*
X037012Y023420D01*
X037040Y023437D01*
X037069Y023451D01*
X037100Y023462D01*
X037131Y023469D01*
X037164Y023473D01*
X037196Y023473D01*
X037229Y023469D01*
X037260Y023462D01*
X037291Y023451D01*
X037320Y023437D01*
X037348Y023420D01*
X037374Y023400D01*
X037397Y023377D01*
X037467Y023160D02*
X037160Y023160D01*
X037160Y022700D01*
X037467Y022700D01*
X037621Y022700D02*
X037621Y023160D01*
X037851Y023160D01*
X037928Y023084D01*
X037928Y022777D01*
X037851Y022700D01*
X037621Y022700D01*
X037314Y022930D02*
X037160Y022930D01*
X036963Y022983D02*
X036986Y022960D01*
X037012Y022940D01*
X037040Y022923D01*
X037069Y022909D01*
X037100Y022898D01*
X037131Y022891D01*
X037164Y022887D01*
X037196Y022887D01*
X037229Y022891D01*
X037260Y022898D01*
X037291Y022909D01*
X037320Y022923D01*
X037348Y022940D01*
X037374Y022960D01*
X037397Y022983D01*
X037007Y022700D02*
X036700Y022700D01*
X036700Y023160D01*
X036963Y022377D02*
X036986Y022400D01*
X037012Y022420D01*
X037040Y022437D01*
X037069Y022451D01*
X037100Y022462D01*
X037131Y022469D01*
X037164Y022473D01*
X037196Y022473D01*
X037229Y022469D01*
X037260Y022462D01*
X037291Y022451D01*
X037320Y022437D01*
X037348Y022420D01*
X037374Y022400D01*
X037397Y022377D01*
X037397Y021983D02*
X037374Y021960D01*
X037348Y021940D01*
X037320Y021923D01*
X037291Y021909D01*
X037260Y021898D01*
X037229Y021891D01*
X037196Y021887D01*
X037164Y021887D01*
X037131Y021891D01*
X037100Y021898D01*
X037069Y021909D01*
X037040Y021923D01*
X037012Y021940D01*
X036986Y021960D01*
X036963Y021983D01*
X037160Y021160D02*
X037160Y020700D01*
X037467Y020700D01*
X037621Y020700D02*
X037851Y020700D01*
X037928Y020777D01*
X037928Y021084D01*
X037851Y021160D01*
X037621Y021160D01*
X037621Y020700D01*
X037314Y020930D02*
X037160Y020930D01*
X037160Y021160D02*
X037467Y021160D01*
X036700Y021160D02*
X036700Y020700D01*
X037007Y020700D01*
X036963Y020377D02*
X036986Y020400D01*
X037012Y020420D01*
X037040Y020437D01*
X037069Y020451D01*
X037100Y020462D01*
X037131Y020469D01*
X037164Y020473D01*
X037196Y020473D01*
X037229Y020469D01*
X037260Y020462D01*
X037291Y020451D01*
X037320Y020437D01*
X037348Y020420D01*
X037374Y020400D01*
X037397Y020377D01*
X037467Y020160D02*
X037160Y020160D01*
X037160Y019700D01*
X037467Y019700D01*
X037621Y019700D02*
X037851Y019700D01*
X037928Y019777D01*
X037928Y020084D01*
X037851Y020160D01*
X037621Y020160D01*
X037621Y019700D01*
X037314Y019930D02*
X037160Y019930D01*
X036963Y019983D02*
X036986Y019960D01*
X037012Y019940D01*
X037040Y019923D01*
X037069Y019909D01*
X037100Y019898D01*
X037131Y019891D01*
X037164Y019887D01*
X037196Y019887D01*
X037229Y019891D01*
X037260Y019898D01*
X037291Y019909D01*
X037320Y019923D01*
X037348Y019940D01*
X037374Y019960D01*
X037397Y019983D01*
X037007Y019700D02*
X036700Y019700D01*
X036700Y020160D01*
X036700Y019160D02*
X036700Y018700D01*
X037007Y018700D01*
X037160Y018700D02*
X037467Y018700D01*
X037621Y018700D02*
X037851Y018700D01*
X037928Y018777D01*
X037928Y019084D01*
X037851Y019160D01*
X037621Y019160D01*
X037621Y018700D01*
X037314Y018930D02*
X037160Y018930D01*
X037160Y019160D02*
X037160Y018700D01*
X036963Y018377D02*
X036986Y018400D01*
X037012Y018420D01*
X037040Y018437D01*
X037069Y018451D01*
X037100Y018462D01*
X037131Y018469D01*
X037164Y018473D01*
X037196Y018473D01*
X037229Y018469D01*
X037260Y018462D01*
X037291Y018451D01*
X037320Y018437D01*
X037348Y018420D01*
X037374Y018400D01*
X037397Y018377D01*
X037397Y017983D02*
X037374Y017960D01*
X037348Y017940D01*
X037320Y017923D01*
X037291Y017909D01*
X037260Y017898D01*
X037229Y017891D01*
X037196Y017887D01*
X037164Y017887D01*
X037131Y017891D01*
X037100Y017898D01*
X037069Y017909D01*
X037040Y017923D01*
X037012Y017940D01*
X036986Y017960D01*
X036963Y017983D01*
X037160Y017160D02*
X037160Y016700D01*
X037467Y016700D01*
X037621Y016700D02*
X037621Y017160D01*
X037851Y017160D01*
X037928Y017084D01*
X037928Y016777D01*
X037851Y016700D01*
X037621Y016700D01*
X037314Y016930D02*
X037160Y016930D01*
X037160Y017160D02*
X037467Y017160D01*
X037007Y016700D02*
X036700Y016700D01*
X036700Y017160D01*
X036700Y016160D02*
X036700Y015700D01*
X037007Y015700D01*
X037160Y015700D02*
X037160Y016160D01*
X037467Y016160D01*
X037621Y016160D02*
X037621Y015700D01*
X037851Y015700D01*
X037928Y015777D01*
X037928Y016084D01*
X037851Y016160D01*
X037621Y016160D01*
X037314Y015930D02*
X037160Y015930D01*
X037160Y015700D02*
X037467Y015700D01*
X037397Y015983D02*
X037374Y015960D01*
X037348Y015940D01*
X037320Y015923D01*
X037291Y015909D01*
X037260Y015898D01*
X037229Y015891D01*
X037196Y015887D01*
X037164Y015887D01*
X037131Y015891D01*
X037100Y015898D01*
X037069Y015909D01*
X037040Y015923D01*
X037012Y015940D01*
X036986Y015960D01*
X036963Y015983D01*
X036963Y016377D02*
X036986Y016400D01*
X037012Y016420D01*
X037040Y016437D01*
X037069Y016451D01*
X037100Y016462D01*
X037131Y016469D01*
X037164Y016473D01*
X037196Y016473D01*
X037229Y016469D01*
X037260Y016462D01*
X037291Y016451D01*
X037320Y016437D01*
X037348Y016420D01*
X037374Y016400D01*
X037397Y016377D01*
X038081Y016084D02*
X038081Y016007D01*
X038158Y015930D01*
X038311Y015930D01*
X038388Y015853D01*
X038388Y015777D01*
X038311Y015700D01*
X038158Y015700D01*
X038081Y015777D01*
X038081Y015853D01*
X038158Y015930D01*
X038311Y015930D02*
X038388Y016007D01*
X038388Y016084D01*
X038311Y016160D01*
X038158Y016160D01*
X038081Y016084D01*
X038081Y016700D02*
X038081Y016777D01*
X038388Y017084D01*
X038388Y017160D01*
X038081Y017160D01*
X038158Y018700D02*
X038311Y018700D01*
X038388Y018777D01*
X038388Y018853D01*
X038311Y018930D01*
X038081Y018930D01*
X038081Y018777D01*
X038158Y018700D01*
X038081Y018930D02*
X038235Y019084D01*
X038388Y019160D01*
X038311Y019700D02*
X038158Y019700D01*
X038081Y019777D01*
X038081Y019930D02*
X038235Y020007D01*
X038311Y020007D01*
X038388Y019930D01*
X038388Y019777D01*
X038311Y019700D01*
X038081Y019930D02*
X038081Y020160D01*
X038388Y020160D01*
X038311Y020700D02*
X038311Y021160D01*
X038081Y020930D01*
X038388Y020930D01*
X037467Y019160D02*
X037160Y019160D01*
X036963Y018983D02*
X036986Y018960D01*
X037012Y018940D01*
X037040Y018923D01*
X037069Y018909D01*
X037100Y018898D01*
X037131Y018891D01*
X037164Y018887D01*
X037196Y018887D01*
X037229Y018891D01*
X037260Y018898D01*
X037291Y018909D01*
X037320Y018923D01*
X037348Y018940D01*
X037374Y018960D01*
X037397Y018983D01*
X037397Y019377D02*
X037374Y019400D01*
X037348Y019420D01*
X037320Y019437D01*
X037291Y019451D01*
X037260Y019462D01*
X037229Y019469D01*
X037196Y019473D01*
X037164Y019473D01*
X037131Y019469D01*
X037100Y019462D01*
X037069Y019451D01*
X037040Y019437D01*
X037012Y019420D01*
X036986Y019400D01*
X036963Y019377D01*
X038158Y022700D02*
X038081Y022777D01*
X038158Y022700D02*
X038311Y022700D01*
X038388Y022777D01*
X038388Y022853D01*
X038311Y022930D01*
X038235Y022930D01*
X038311Y022930D02*
X038388Y023007D01*
X038388Y023084D01*
X038311Y023160D01*
X038158Y023160D01*
X038081Y023084D01*
X038081Y023700D02*
X038388Y024007D01*
X038388Y024084D01*
X038311Y024160D01*
X038158Y024160D01*
X038081Y024084D01*
X038081Y023700D02*
X038388Y023700D01*
X038388Y024700D02*
X038081Y024700D01*
X038235Y024700D02*
X038235Y025160D01*
X038081Y025007D01*
X038158Y015160D02*
X038081Y015084D01*
X038081Y015007D01*
X038158Y014930D01*
X038388Y014930D01*
X038388Y014777D02*
X038388Y015084D01*
X038311Y015160D01*
X038158Y015160D01*
X037928Y015084D02*
X037851Y015160D01*
X037621Y015160D01*
X037621Y014700D01*
X037851Y014700D01*
X037928Y014777D01*
X037928Y015084D01*
X038081Y014777D02*
X038158Y014700D01*
X038311Y014700D01*
X038388Y014777D01*
X037467Y014700D02*
X037160Y014700D01*
X037160Y015160D01*
X037467Y015160D01*
X037314Y014930D02*
X037160Y014930D01*
X036963Y014983D02*
X036986Y014960D01*
X037012Y014940D01*
X037040Y014923D01*
X037069Y014909D01*
X037100Y014898D01*
X037131Y014891D01*
X037164Y014887D01*
X037196Y014887D01*
X037229Y014891D01*
X037260Y014898D01*
X037291Y014909D01*
X037320Y014923D01*
X037348Y014940D01*
X037374Y014960D01*
X037397Y014983D01*
X037397Y015377D02*
X037374Y015400D01*
X037348Y015420D01*
X037320Y015437D01*
X037291Y015451D01*
X037260Y015462D01*
X037229Y015469D01*
X037196Y015473D01*
X037164Y015473D01*
X037131Y015469D01*
X037100Y015462D01*
X037069Y015451D01*
X037040Y015437D01*
X037012Y015420D01*
X036986Y015400D01*
X036963Y015377D01*
X036700Y015160D02*
X036700Y014700D01*
X037007Y014700D01*
X036963Y014377D02*
X036986Y014400D01*
X037012Y014420D01*
X037040Y014437D01*
X037069Y014451D01*
X037100Y014462D01*
X037131Y014469D01*
X037164Y014473D01*
X037196Y014473D01*
X037229Y014469D01*
X037260Y014462D01*
X037291Y014451D01*
X037320Y014437D01*
X037348Y014420D01*
X037374Y014400D01*
X037397Y014377D01*
X037397Y013983D02*
X037374Y013960D01*
X037348Y013940D01*
X037320Y013923D01*
X037291Y013909D01*
X037260Y013898D01*
X037229Y013891D01*
X037196Y013887D01*
X037164Y013887D01*
X037131Y013891D01*
X037100Y013898D01*
X037069Y013909D01*
X037040Y013923D01*
X037012Y013940D01*
X036986Y013960D01*
X036963Y013983D01*
X037160Y013160D02*
X037160Y012700D01*
X037467Y012700D01*
X037621Y012700D02*
X037851Y012700D01*
X037928Y012777D01*
X037928Y013084D01*
X037851Y013160D01*
X037621Y013160D01*
X037621Y012700D01*
X037314Y012930D02*
X037160Y012930D01*
X037160Y013160D02*
X037467Y013160D01*
X036700Y013160D02*
X036700Y012700D01*
X037007Y012700D01*
X036963Y012377D02*
X036986Y012400D01*
X037012Y012420D01*
X037040Y012437D01*
X037069Y012451D01*
X037100Y012462D01*
X037131Y012469D01*
X037164Y012473D01*
X037196Y012473D01*
X037229Y012469D01*
X037260Y012462D01*
X037291Y012451D01*
X037320Y012437D01*
X037348Y012420D01*
X037374Y012400D01*
X037397Y012377D01*
X037467Y012160D02*
X037160Y012160D01*
X037160Y011700D01*
X037467Y011700D01*
X037621Y011700D02*
X037851Y011700D01*
X037928Y011777D01*
X037928Y012084D01*
X037851Y012160D01*
X037621Y012160D01*
X037621Y011700D01*
X037314Y011930D02*
X037160Y011930D01*
X036963Y011983D02*
X036986Y011960D01*
X037012Y011940D01*
X037040Y011923D01*
X037069Y011909D01*
X037100Y011898D01*
X037131Y011891D01*
X037164Y011887D01*
X037196Y011887D01*
X037229Y011891D01*
X037260Y011898D01*
X037291Y011909D01*
X037320Y011923D01*
X037348Y011940D01*
X037374Y011960D01*
X037397Y011983D01*
X037007Y011700D02*
X036700Y011700D01*
X036700Y012160D01*
X036700Y011160D02*
X036700Y010700D01*
X037007Y010700D01*
X037160Y010700D02*
X037467Y010700D01*
X037621Y010700D02*
X037851Y010700D01*
X037928Y010777D01*
X037928Y011084D01*
X037851Y011160D01*
X037621Y011160D01*
X037621Y010700D01*
X037314Y010930D02*
X037160Y010930D01*
X037160Y011160D02*
X037160Y010700D01*
X037160Y011160D02*
X037467Y011160D01*
X037397Y011377D02*
X037374Y011400D01*
X037348Y011420D01*
X037320Y011437D01*
X037291Y011451D01*
X037260Y011462D01*
X037229Y011469D01*
X037196Y011473D01*
X037164Y011473D01*
X037131Y011469D01*
X037100Y011462D01*
X037069Y011451D01*
X037040Y011437D01*
X037012Y011420D01*
X036986Y011400D01*
X036963Y011377D01*
X036963Y010983D02*
X036986Y010960D01*
X037012Y010940D01*
X037040Y010923D01*
X037069Y010909D01*
X037100Y010898D01*
X037131Y010891D01*
X037164Y010887D01*
X037196Y010887D01*
X037229Y010891D01*
X037260Y010898D01*
X037291Y010909D01*
X037320Y010923D01*
X037348Y010940D01*
X037374Y010960D01*
X037397Y010983D01*
X038081Y011007D02*
X038235Y011160D01*
X038235Y010700D01*
X038388Y010700D02*
X038081Y010700D01*
X038542Y010700D02*
X038848Y011007D01*
X038848Y011084D01*
X038772Y011160D01*
X038618Y011160D01*
X038542Y011084D01*
X038542Y010700D02*
X038848Y010700D01*
X038848Y011700D02*
X038542Y011700D01*
X038695Y011700D02*
X038695Y012160D01*
X038542Y012007D01*
X038388Y011700D02*
X038081Y011700D01*
X038235Y011700D02*
X038235Y012160D01*
X038081Y012007D01*
X038081Y012700D02*
X038388Y012700D01*
X038235Y012700D02*
X038235Y013160D01*
X038081Y013007D01*
X038542Y013084D02*
X038618Y013160D01*
X038772Y013160D01*
X038848Y013084D01*
X038542Y012777D01*
X038618Y012700D01*
X038772Y012700D01*
X038848Y012777D01*
X038848Y013084D01*
X038542Y013084D02*
X038542Y012777D01*
X037397Y010377D02*
X037374Y010400D01*
X037348Y010420D01*
X037320Y010437D01*
X037291Y010451D01*
X037260Y010462D01*
X037229Y010469D01*
X037196Y010473D01*
X037164Y010473D01*
X037131Y010469D01*
X037100Y010462D01*
X037069Y010451D01*
X037040Y010437D01*
X037012Y010420D01*
X036986Y010400D01*
X036963Y010377D01*
X036963Y009983D02*
X036986Y009960D01*
X037012Y009940D01*
X037040Y009923D01*
X037069Y009909D01*
X037100Y009898D01*
X037131Y009891D01*
X037164Y009887D01*
X037196Y009887D01*
X037229Y009891D01*
X037260Y009898D01*
X037291Y009909D01*
X037320Y009923D01*
X037348Y009940D01*
X037374Y009960D01*
X037397Y009983D01*
X035893Y003660D02*
X035740Y003507D01*
X035586Y003584D02*
X035509Y003660D01*
X035356Y003660D01*
X035279Y003584D01*
X035279Y003277D01*
X035356Y003200D01*
X035509Y003200D01*
X035586Y003277D01*
X035740Y003200D02*
X036047Y003200D01*
X035893Y003200D02*
X035893Y003660D01*
X031047Y003584D02*
X030970Y003660D01*
X030816Y003660D01*
X030740Y003584D01*
X030586Y003584D02*
X030509Y003660D01*
X030356Y003660D01*
X030279Y003584D01*
X030279Y003277D01*
X030356Y003200D01*
X030509Y003200D01*
X030586Y003277D01*
X030740Y003200D02*
X031047Y003507D01*
X031047Y003584D01*
X031047Y003200D02*
X030740Y003200D01*
X026047Y003277D02*
X025970Y003200D01*
X025816Y003200D01*
X025740Y003277D01*
X025586Y003277D02*
X025509Y003200D01*
X025356Y003200D01*
X025279Y003277D01*
X025279Y003584D01*
X025356Y003660D01*
X025509Y003660D01*
X025586Y003584D01*
X025740Y003584D02*
X025816Y003660D01*
X025970Y003660D01*
X026047Y003584D01*
X026047Y003507D01*
X025970Y003430D01*
X026047Y003353D01*
X026047Y003277D01*
X025970Y003430D02*
X025893Y003430D01*
X014547Y003430D02*
X014240Y003430D01*
X014470Y003660D01*
X014470Y003200D01*
X014086Y003277D02*
X014009Y003200D01*
X013856Y003200D01*
X013779Y003277D01*
X013779Y003584D01*
X013856Y003660D01*
X014009Y003660D01*
X014086Y003584D01*
X010235Y006900D02*
X009928Y006900D01*
X010081Y006900D02*
X010081Y007360D01*
X009928Y007207D01*
X009774Y007284D02*
X009698Y007360D01*
X009544Y007360D01*
X009467Y007284D01*
X009467Y007207D01*
X009544Y007130D01*
X009698Y007130D01*
X009774Y007053D01*
X009774Y006977D01*
X009698Y006900D01*
X009544Y006900D01*
X009467Y006977D01*
X009314Y006900D02*
X009160Y006900D01*
X009237Y006900D02*
X009237Y007360D01*
X009160Y007360D02*
X009314Y007360D01*
X009007Y006900D02*
X008700Y006900D01*
X008700Y007360D01*
X008856Y003660D02*
X008779Y003584D01*
X008779Y003277D01*
X008856Y003200D01*
X009009Y003200D01*
X009086Y003277D01*
X009240Y003277D02*
X009316Y003200D01*
X009470Y003200D01*
X009547Y003277D01*
X009547Y003430D01*
X009470Y003507D01*
X009393Y003507D01*
X009240Y003430D01*
X009240Y003660D01*
X009547Y003660D01*
X009086Y003584D02*
X009009Y003660D01*
X008856Y003660D01*
X004547Y003660D02*
X004393Y003584D01*
X004240Y003430D01*
X004470Y003430D01*
X004547Y003353D01*
X004547Y003277D01*
X004470Y003200D01*
X004316Y003200D01*
X004240Y003277D01*
X004240Y003430D01*
X004086Y003277D02*
X004009Y003200D01*
X003856Y003200D01*
X003779Y003277D01*
X003779Y003584D01*
X003856Y003660D01*
X004009Y003660D01*
X004086Y003584D01*
D14*
X010180Y014530D02*
X010180Y015280D01*
X010219Y015282D01*
X010258Y015288D01*
X010296Y015297D01*
X010333Y015310D01*
X010369Y015327D01*
X010402Y015347D01*
X010434Y015371D01*
X010463Y015397D01*
X010489Y015426D01*
X010513Y015458D01*
X010533Y015491D01*
X010550Y015527D01*
X010563Y015564D01*
X010572Y015602D01*
X010578Y015641D01*
X010580Y015680D01*
X010578Y015719D01*
X010572Y015758D01*
X010563Y015796D01*
X010550Y015833D01*
X010533Y015869D01*
X010513Y015902D01*
X010489Y015934D01*
X010463Y015963D01*
X010434Y015989D01*
X010402Y016013D01*
X010369Y016033D01*
X010333Y016050D01*
X010296Y016063D01*
X010258Y016072D01*
X010219Y016078D01*
X010180Y016080D01*
X010180Y016830D01*
X018180Y016830D01*
X018180Y014530D01*
X010180Y014530D01*
X021680Y015030D02*
X021680Y015780D01*
X021719Y015782D01*
X021758Y015788D01*
X021796Y015797D01*
X021833Y015810D01*
X021869Y015827D01*
X021902Y015847D01*
X021934Y015871D01*
X021963Y015897D01*
X021989Y015926D01*
X022013Y015958D01*
X022033Y015991D01*
X022050Y016027D01*
X022063Y016064D01*
X022072Y016102D01*
X022078Y016141D01*
X022080Y016180D01*
X022078Y016219D01*
X022072Y016258D01*
X022063Y016296D01*
X022050Y016333D01*
X022033Y016369D01*
X022013Y016402D01*
X021989Y016434D01*
X021963Y016463D01*
X021934Y016489D01*
X021902Y016513D01*
X021869Y016533D01*
X021833Y016550D01*
X021796Y016563D01*
X021758Y016572D01*
X021719Y016578D01*
X021680Y016580D01*
X021680Y017330D01*
X029680Y017330D01*
X029680Y015030D01*
X021680Y015030D01*
D15*
X028780Y021130D02*
X028780Y022230D01*
X028782Y022247D01*
X028786Y022264D01*
X028793Y022280D01*
X028803Y022294D01*
X028816Y022307D01*
X028830Y022317D01*
X028846Y022324D01*
X028863Y022328D01*
X028880Y022330D01*
X029480Y022330D01*
X029497Y022328D01*
X029514Y022324D01*
X029530Y022317D01*
X029544Y022307D01*
X029557Y022294D01*
X029567Y022280D01*
X029574Y022264D01*
X029578Y022247D01*
X029580Y022230D01*
X029580Y021130D01*
X029578Y021113D01*
X029574Y021096D01*
X029567Y021080D01*
X029557Y021066D01*
X029544Y021053D01*
X029530Y021043D01*
X029514Y021036D01*
X029497Y021032D01*
X029480Y021030D01*
X028880Y021030D01*
X028863Y021032D01*
X028846Y021036D01*
X028830Y021043D01*
X028816Y021053D01*
X028803Y021066D01*
X028793Y021080D01*
X028786Y021096D01*
X028782Y021113D01*
X028780Y021130D01*
X030280Y021130D02*
X030280Y022230D01*
X030282Y022247D01*
X030286Y022264D01*
X030293Y022280D01*
X030303Y022294D01*
X030316Y022307D01*
X030330Y022317D01*
X030346Y022324D01*
X030363Y022328D01*
X030380Y022330D01*
X030980Y022330D01*
X030997Y022328D01*
X031014Y022324D01*
X031030Y022317D01*
X031044Y022307D01*
X031057Y022294D01*
X031067Y022280D01*
X031074Y022264D01*
X031078Y022247D01*
X031080Y022230D01*
X031080Y021130D01*
X031078Y021113D01*
X031074Y021096D01*
X031067Y021080D01*
X031057Y021066D01*
X031044Y021053D01*
X031030Y021043D01*
X031014Y021036D01*
X030997Y021032D01*
X030980Y021030D01*
X030380Y021030D01*
X030363Y021032D01*
X030346Y021036D01*
X030330Y021043D01*
X030316Y021053D01*
X030303Y021066D01*
X030293Y021080D01*
X030286Y021096D01*
X030282Y021113D01*
X030280Y021130D01*
X035562Y020416D02*
X035798Y020416D01*
X035798Y019944D02*
X035562Y019944D01*
X035562Y019416D02*
X035798Y019416D01*
X035798Y018944D02*
X035562Y018944D01*
X035562Y018416D02*
X035798Y018416D01*
X035798Y017944D02*
X035562Y017944D01*
X035562Y016416D02*
X035798Y016416D01*
X035798Y015944D02*
X035562Y015944D01*
X035562Y015416D02*
X035798Y015416D01*
X035798Y014944D02*
X035562Y014944D01*
X035562Y014416D02*
X035798Y014416D01*
X035798Y013944D02*
X035562Y013944D01*
X035562Y012416D02*
X035798Y012416D01*
X035798Y011944D02*
X035562Y011944D01*
X035562Y011416D02*
X035798Y011416D01*
X035798Y010944D02*
X035562Y010944D01*
X035562Y010416D02*
X035798Y010416D01*
X035798Y009944D02*
X035562Y009944D01*
X035562Y021944D02*
X035798Y021944D01*
X035798Y022416D02*
X035562Y022416D01*
X035562Y022944D02*
X035798Y022944D01*
X035798Y023416D02*
X035562Y023416D01*
X035562Y023944D02*
X035798Y023944D01*
X035798Y024416D02*
X035562Y024416D01*
D16*
X035582Y024510D02*
X035582Y024660D01*
X035532Y024610D01*
X035485Y024585D02*
X035460Y024560D01*
X035385Y024560D01*
X035385Y024510D02*
X035385Y024660D01*
X035460Y024660D01*
X035485Y024635D01*
X035485Y024585D01*
X035435Y024560D02*
X035485Y024510D01*
X035532Y024510D02*
X035632Y024510D01*
X035607Y023660D02*
X035557Y023660D01*
X035532Y023635D01*
X035485Y023635D02*
X035485Y023585D01*
X035460Y023560D01*
X035385Y023560D01*
X035385Y023510D02*
X035385Y023660D01*
X035460Y023660D01*
X035485Y023635D01*
X035435Y023560D02*
X035485Y023510D01*
X035532Y023510D02*
X035632Y023610D01*
X035632Y023635D01*
X035607Y023660D01*
X035632Y023510D02*
X035532Y023510D01*
X035557Y022660D02*
X035607Y022660D01*
X035632Y022635D01*
X035632Y022610D01*
X035607Y022585D01*
X035632Y022560D01*
X035632Y022535D01*
X035607Y022510D01*
X035557Y022510D01*
X035532Y022535D01*
X035485Y022510D02*
X035435Y022560D01*
X035460Y022560D02*
X035385Y022560D01*
X035385Y022510D02*
X035385Y022660D01*
X035460Y022660D01*
X035485Y022635D01*
X035485Y022585D01*
X035460Y022560D01*
X035532Y022635D02*
X035557Y022660D01*
X035582Y022585D02*
X035607Y022585D01*
X035632Y020660D02*
X035582Y020635D01*
X035532Y020585D01*
X035607Y020585D01*
X035632Y020560D01*
X035632Y020535D01*
X035607Y020510D01*
X035557Y020510D01*
X035532Y020535D01*
X035532Y020585D01*
X035485Y020585D02*
X035460Y020560D01*
X035385Y020560D01*
X035385Y020510D02*
X035385Y020660D01*
X035460Y020660D01*
X035485Y020635D01*
X035485Y020585D01*
X035435Y020560D02*
X035485Y020510D01*
X035460Y019660D02*
X035485Y019635D01*
X035485Y019585D01*
X035460Y019560D01*
X035385Y019560D01*
X035385Y019510D02*
X035385Y019660D01*
X035460Y019660D01*
X035532Y019660D02*
X035632Y019660D01*
X035632Y019635D01*
X035532Y019535D01*
X035532Y019510D01*
X035485Y019510D02*
X035435Y019560D01*
X035460Y018660D02*
X035485Y018635D01*
X035485Y018585D01*
X035460Y018560D01*
X035385Y018560D01*
X035385Y018510D02*
X035385Y018660D01*
X035460Y018660D01*
X035532Y018635D02*
X035532Y018610D01*
X035557Y018585D01*
X035607Y018585D01*
X035632Y018560D01*
X035632Y018535D01*
X035607Y018510D01*
X035557Y018510D01*
X035532Y018535D01*
X035532Y018560D01*
X035557Y018585D01*
X035607Y018585D02*
X035632Y018610D01*
X035632Y018635D01*
X035607Y018660D01*
X035557Y018660D01*
X035532Y018635D01*
X035435Y018560D02*
X035485Y018510D01*
X035460Y016660D02*
X035485Y016635D01*
X035485Y016585D01*
X035460Y016560D01*
X035385Y016560D01*
X035385Y016510D02*
X035385Y016660D01*
X035460Y016660D01*
X035532Y016635D02*
X035532Y016610D01*
X035557Y016585D01*
X035632Y016585D01*
X035632Y016535D02*
X035632Y016635D01*
X035607Y016660D01*
X035557Y016660D01*
X035532Y016635D01*
X035532Y016535D02*
X035557Y016510D01*
X035607Y016510D01*
X035632Y016535D01*
X035485Y016510D02*
X035435Y016560D01*
X035460Y015660D02*
X035485Y015635D01*
X035485Y015585D01*
X035460Y015560D01*
X035385Y015560D01*
X035385Y015510D02*
X035385Y015660D01*
X035460Y015660D01*
X035532Y015610D02*
X035582Y015660D01*
X035582Y015510D01*
X035532Y015510D02*
X035632Y015510D01*
X035680Y015535D02*
X035780Y015635D01*
X035780Y015535D01*
X035755Y015510D01*
X035705Y015510D01*
X035680Y015535D01*
X035680Y015635D01*
X035705Y015660D01*
X035755Y015660D01*
X035780Y015635D01*
X035485Y015510D02*
X035435Y015560D01*
X035460Y014660D02*
X035485Y014635D01*
X035485Y014585D01*
X035460Y014560D01*
X035385Y014560D01*
X035385Y014510D02*
X035385Y014660D01*
X035460Y014660D01*
X035532Y014610D02*
X035582Y014660D01*
X035582Y014510D01*
X035532Y014510D02*
X035632Y014510D01*
X035680Y014510D02*
X035780Y014510D01*
X035730Y014510D02*
X035730Y014660D01*
X035680Y014610D01*
X035485Y014510D02*
X035435Y014560D01*
X035460Y012660D02*
X035485Y012635D01*
X035485Y012585D01*
X035460Y012560D01*
X035385Y012560D01*
X035385Y012510D02*
X035385Y012660D01*
X035460Y012660D01*
X035532Y012610D02*
X035582Y012660D01*
X035582Y012510D01*
X035532Y012510D02*
X035632Y012510D01*
X035680Y012510D02*
X035780Y012610D01*
X035780Y012635D01*
X035755Y012660D01*
X035705Y012660D01*
X035680Y012635D01*
X035680Y012510D02*
X035780Y012510D01*
X035485Y012510D02*
X035435Y012560D01*
X035460Y011660D02*
X035485Y011635D01*
X035485Y011585D01*
X035460Y011560D01*
X035385Y011560D01*
X035385Y011510D02*
X035385Y011660D01*
X035460Y011660D01*
X035532Y011610D02*
X035582Y011660D01*
X035582Y011510D01*
X035532Y011510D02*
X035632Y011510D01*
X035680Y011535D02*
X035705Y011510D01*
X035755Y011510D01*
X035780Y011535D01*
X035780Y011560D01*
X035755Y011585D01*
X035730Y011585D01*
X035755Y011585D02*
X035780Y011610D01*
X035780Y011635D01*
X035755Y011660D01*
X035705Y011660D01*
X035680Y011635D01*
X035485Y011510D02*
X035435Y011560D01*
X035460Y010660D02*
X035485Y010635D01*
X035485Y010585D01*
X035460Y010560D01*
X035385Y010560D01*
X035385Y010510D02*
X035385Y010660D01*
X035460Y010660D01*
X035532Y010610D02*
X035582Y010660D01*
X035582Y010510D01*
X035532Y010510D02*
X035632Y010510D01*
X035680Y010585D02*
X035780Y010585D01*
X035755Y010510D02*
X035755Y010660D01*
X035680Y010585D01*
X035485Y010510D02*
X035435Y010560D01*
X031135Y023240D02*
X030985Y023240D01*
X030985Y023315D01*
X031010Y023340D01*
X031060Y023340D01*
X031085Y023315D01*
X031085Y023240D01*
X031085Y023290D02*
X031135Y023340D01*
X031110Y023388D02*
X031135Y023413D01*
X031135Y023463D01*
X031110Y023488D01*
X031060Y023488D01*
X031035Y023463D01*
X031035Y023438D01*
X031060Y023388D01*
X030985Y023388D01*
X030985Y023488D01*
X029635Y023463D02*
X029485Y023463D01*
X029560Y023388D01*
X029560Y023488D01*
X029560Y023340D02*
X029585Y023315D01*
X029585Y023240D01*
X029635Y023240D02*
X029485Y023240D01*
X029485Y023315D01*
X029510Y023340D01*
X029560Y023340D01*
X029585Y023290D02*
X029635Y023340D01*
D17*
X037180Y023180D03*
X037180Y022180D03*
X037180Y020180D03*
X037180Y019180D03*
X037180Y018180D03*
X037180Y016180D03*
X037180Y015180D03*
X037180Y014180D03*
X037180Y012180D03*
X037180Y011180D03*
X037180Y010180D03*
X037180Y024180D03*
D18*
X037387Y023954D03*
X037387Y022954D03*
X037387Y021954D03*
X037387Y019954D03*
X037387Y018954D03*
X037387Y017954D03*
X037387Y015954D03*
X037387Y014954D03*
X037387Y013954D03*
X037387Y011954D03*
X037387Y010954D03*
X037387Y009954D03*
D19*
X030680Y023180D03*
X029180Y023180D03*
D20*
X029830Y022636D02*
X029830Y022543D01*
X029830Y022589D02*
X029690Y022589D01*
X029737Y022543D01*
X029690Y022489D02*
X029690Y022442D01*
X029690Y022465D02*
X029807Y022465D01*
X029830Y022442D01*
X029830Y022419D01*
X029807Y022395D01*
X029807Y022341D02*
X029830Y022318D01*
X029830Y022271D01*
X029807Y022248D01*
X029760Y022271D02*
X029760Y022318D01*
X029783Y022341D01*
X029807Y022341D01*
X029760Y022271D02*
X029737Y022248D01*
X029713Y022248D01*
X029690Y022271D01*
X029690Y022318D01*
X029713Y022341D01*
X031190Y022318D02*
X031190Y022271D01*
X031213Y022248D01*
X031237Y022248D01*
X031260Y022271D01*
X031260Y022318D01*
X031283Y022341D01*
X031307Y022341D01*
X031330Y022318D01*
X031330Y022271D01*
X031307Y022248D01*
X031213Y022341D02*
X031190Y022318D01*
X031190Y022442D02*
X031190Y022489D01*
X031190Y022465D02*
X031307Y022465D01*
X031330Y022442D01*
X031330Y022419D01*
X031307Y022395D01*
X031330Y022543D02*
X031237Y022636D01*
X031213Y022636D01*
X031190Y022613D01*
X031190Y022566D01*
X031213Y022543D01*
X031330Y022543D02*
X031330Y022636D01*
M02*
