%
M48
M72
T01C0.0240
T02C0.0320
T03C0.0400
T04C0.0440
%
T01
X15680Y23180
X25180Y20680
X11180Y21180
X10680Y13180
X13180Y26180
X16180Y30680
X19680Y20680
X23680Y27680
X23180Y28680
T02
X22180Y14680
X23180Y14680
X24180Y14680
X25180Y14680
X26180Y14680
X27180Y14680
X28180Y14680
X29180Y14680
X29180Y17680
X28180Y17680
X27180Y17680
X26180Y17680
X25180Y17680
X24180Y17680
X23180Y17680
X22180Y17680
X10680Y14180
X11680Y14180
X12680Y14180
X13680Y14180
X14680Y14180
X15680Y14180
X16680Y14180
X17680Y14180
X17680Y17180
X16680Y17180
X15680Y17180
X14680Y17180
X13680Y17180
X12680Y17180
X11680Y17180
X10680Y17180
T03
X12680Y25130
X11680Y25230
X10680Y25130
X9680Y25230
X8680Y25130
X7680Y25230
X6680Y25130
X5680Y25230
X21180Y25130
X20180Y25230
X19180Y25130
X18180Y25230
X17180Y25130
X16180Y25230
X15180Y25130
X14180Y25230
X30180Y25130
X29180Y25230
X28180Y25130
X27180Y25230
X26180Y25130
X25180Y25230
X24180Y25130
X23180Y25230
X25180Y6230
X26180Y6130
X27180Y6230
X28180Y6130
X29180Y6230
X30180Y6130
X31180Y6230
X32180Y6130
X16180Y6230
X17180Y6130
X18180Y6230
X19180Y6130
X20180Y6230
X21180Y6130
X22180Y6230
X23180Y6130
X34130Y9180
X34230Y10180
X34130Y11180
X34230Y12180
X34130Y13180
X34230Y14180
X34130Y15180
X34230Y16180
X34130Y17180
X34230Y18180
X34130Y19180
X34230Y20180
X34130Y21180
X34230Y22180
X34130Y23180
X34230Y24180
X33230Y24180
X33130Y23180
X33230Y22180
X33130Y21180
X33230Y20180
X33130Y19180
X33230Y18180
X33130Y17180
X33230Y16180
X33130Y15180
X33230Y14180
X33130Y13180
X33230Y12180
X33130Y11180
X33230Y10180
X33130Y9180
X9180Y6180
X10180Y6080
X11180Y6180
X12180Y6080
X13180Y6180
X14180Y6080
T04
X27180Y2180
X26180Y2180
X25180Y2180
X24180Y2180
X32180Y2180
X31180Y2180
X30180Y2180
X29180Y2180
X37180Y2180
X36180Y2180
X35180Y2180
X34180Y2180
X15680Y2180
X14680Y2180
X13680Y2180
X12680Y2180
X10680Y2180
X9680Y2180
X8680Y2180
X7680Y2180
X5680Y2180
X4680Y2180
X3680Y2180
X2680Y2180
X2180Y29680
X3180Y29680
X4180Y29680
X5180Y29680
X7180Y29680
X8180Y29680
X9180Y29680
X10180Y29680
X12180Y29680
X13180Y29680
X14180Y29680
X15180Y29680
X29180Y29680
X30180Y29680
X31180Y29680
X32180Y29680
X24180Y29680
X25180Y29680
X26180Y29680
X27180Y29680
X34180Y29680
X35180Y29680
X36180Y29680
X37180Y29680
X2180Y20680
X3180Y20680
X4180Y20680
X5180Y20680
X6180Y20680
M30
